<?xml version="1.0" encoding="UTF-8"?>
<svg width="32px" height="32px" viewBox="0 0 32 32" version="1.1" xmlns="http://www.w3.org/2000/svg" xmlns:xlink="http://www.w3.org/1999/xlink">
    <title>Symbols</title>
    <g id="Symbols" stroke="none" stroke-width="1" fill="none" fill-rule="evenodd">
        <g id="General-Elements/Back-To-Top/High-Fidelity" transform="translate(-6.000000, -6.000000)">
            <path d="M97,44 L22.1176471,44 C9.90240789,44 0,34.1502645 0,22 C0,9.97123815 9.70534997,0.197224763 21.7518913,0.00294737144 L22.1176471,0 L97,0 L97,1.83333333 L22.1176471,1.83333333 C10.9203445,1.83333333 1.84313725,10.8622575 1.84313725,22 C1.84313725,33.026365 10.7397081,41.9858773 21.782371,42.1639649 L22.1176471,42.1666667 L97,42.1666667 L97,44 Z" id="Path" fill="#00599C"></path>
            <path d="M97,2 L97,42 L22.241088,42 C11.0622438,42 2,33.045695 2,22 C2,10.954305 11.0622438,2 22.241088,2 L97,2 Z" id="Path" fill="#FFFFFF"></path>
            <path d="M6,22 C6,13.1612903 13.1612903,6 22,6 C30.8387097,6 38,13.1612903 38,22 C38,30.8387097 30.8387097,38 22,38 C13.1612903,38 6,30.8387097 6,22 Z" id="Path" fill="#00599C"></path>
            <path d="M15.0719194,23.1971878 L14.2583601,22.4044191 C13.91388,22.0687423 13.91388,21.5259458 14.2583601,21.19384 L21.3788365,14.2517576 C21.7233165,13.9160808 22.2803481,13.9160808 22.6211635,14.2517576 L29.7416399,21.1902689 C30.08612,21.5259458 30.08612,22.0687423 29.7416399,22.4008481 L28.9280806,23.1936168 C28.5799359,23.5328646 28.0119102,23.5257226 27.6710948,23.1793327 L23.467705,18.8798125 L23.467705,29.1429528 C23.467705,29.6178998 23.0755841,30 22.5881814,30 L21.4154833,30 C20.9280806,30 20.5359597,29.6178998 20.5359597,29.1429528 L20.5359597,18.8798125 L16.3289052,23.1829037 C15.9880898,23.5328646 15.4200641,23.5400067 15.0719194,23.1971878 Z" id="Path" fill="#FFFFFF"></path>
        </g>
    </g>
</svg>