<svg id="Layer_1" data-name="Layer 1" xmlns="http://www.w3.org/2000/svg" viewBox="0 0 13.3 13.2"><title>close-black</title><path d="M16.8,14.8a.91.91,0,0,1-.4.8L14.9,17a1,1,0,0,1-.8.3,1,1,0,0,1-.8-.3L10,13.7,6.8,17a1.14,1.14,0,0,1-.8.3.91.91,0,0,1-.7-.3L3.8,15.4a1,1,0,0,1-.3-.8,1.33,1.33,0,0,1,.3-.8L7,10.7,3.8,7.4a1.22,1.22,0,0,1,0-1.6L5.3,4.3A1.45,1.45,0,0,1,6,4.1a1.14,1.14,0,0,1,.8.3L10,7.7l3.3-3.3a1,1,0,0,1,.8-.3,1,1,0,0,1,.8.3l1.5,1.5a1.14,1.14,0,0,1,.3.8,1.33,1.33,0,0,1-.3.8l-3.3,3.2L16.4,14A1.51,1.51,0,0,1,16.8,14.8Z" transform="translate(-3.5 -4.1)"/></svg>