<?xml version="1.0" encoding="UTF-8"?>
<svg width="32px" height="29px" viewBox="0 0 32 29" version="1.1" xmlns="http://www.w3.org/2000/svg" xmlns:xlink="http://www.w3.org/1999/xlink">
    <title>IRS Eagle Copy</title>
    <g id="Symbols" stroke="none" stroke-width="1" fill="none" fill-rule="evenodd">
        <path d="M23.1100742,7.10496012 C23.7711108,7.9863423 24.0795946,8.5151716 24.4762165,9.44062289 C24.7406312,8.69144804 25.2694605,6.75240725 24.1677328,6.92868368 C23.7711108,7.0168219 23.5066961,7.0168219 23.1100742,7.10496012 L23.1100742,7.10496012 Z M13.4148702,9.17620823 C12.7979027,9.22027734 12.5775572,9.39655378 12.7979027,10.1016595 L15.7946021,10.1016595 C15.7064639,9.04400091 14.6488053,9.04400091 13.4148702,9.17620823 L13.4148702,9.17620823 Z M14.1640451,21.4714896 C14.1640451,21.4714896 14.119976,21.4714896 13.8996304,21.3392823 C13.8555613,21.2952132 13.8555613,21.1630058 13.8555613,21.1630058 L13.8555613,19.5765179 L12.1368661,19.5765179 L14.6928744,26.7597826 L17.2929518,19.5765179 L15.5742566,19.5765179 L15.5742566,21.7799733 L14.1640451,21.4714896 Z M18.6590942,20.5019692 L16.8522607,26.2750224 C16.8522607,26.2750224 17.9980575,26.4072298 18.7031633,26.4072298 C19.4523381,26.4072298 20.6862732,26.2750224 20.6862732,26.2750224 L18.6590942,20.5019692 Z M12.5775572,26.2750224 L10.7266546,20.5019692 L8.74354469,26.2309533 C8.69947558,26.2309533 9.93341063,26.3631607 10.7266546,26.3631607 C11.4758294,26.3631607 12.5775572,26.2750224 12.5775572,26.2750224 L12.5775572,26.2750224 Z M31.967965,16.7560949 C31.8798268,19.6646561 31.7035504,22.8817011 31.3509975,23.7630832 C31.2628593,24.0274979 29.8967169,25.2614329 29.103473,25.5258476 C29.103473,25.702124 29.8085787,22.6172864 30.0289242,17.196786 C30.2492698,11.9525621 29.8085787,8.5151716 29.5882332,7.06089101 C29.4119567,6.09137062 29.1475421,5.43033399 28.8831274,4.85743557 C28.6627819,4.41674448 24.255871,2.74211835 21.6557936,2.30142726 C20.9066187,3.18280944 20.7744114,3.4912932 20.6862732,3.75570785 C20.5540658,4.19639894 22.7134522,6.66426903 22.8897286,6.88461458 C23.1982124,6.13543973 22.5812449,4.15232983 22.3168302,3.97605339 C22.7134522,3.84384607 23.9914563,3.71163874 24.2118019,3.97605339 C24.255871,4.06419161 24.7406312,4.32860627 24.9609767,6.84054547 C26.5033955,6.79647636 26.4152573,7.19309834 26.679672,7.41344388 C26.8118793,6.84054547 26.9881557,5.87102507 26.4593264,5.38626488 C27.913607,5.25405755 28.2661599,5.25405755 28.5305745,5.91509418 C28.6627819,6.22357794 28.7949892,7.41344388 28.1780217,9.22027734 C29.8085787,10.1016595 29.544164,10.1016595 29.544164,12.305115 C29.544164,13.8034647 29.5000949,15.6102981 29.1916112,17.3730625 C29.0153347,18.6951357 28.8390583,20.017209 28.5746437,21.2952132 C28.0017452,24.3359817 27.1644322,26.3190916 27.076294,26.5394371 C26.9881557,26.6716444 26.1508427,26.9360591 25.0491149,27.2886119 C25.0491149,26.6275753 25.7542207,24.864811 26.5033955,20.6782456 C26.9000175,18.386652 27.2525704,16.2272656 27.3407086,15.1255379 C27.5610541,11.6881474 27.6932615,11.511871 27.4729159,9.66096843 C27.4288468,9.26434645 27.076294,9.08807002 26.679672,8.95586269 C26.679672,8.95586269 26.4593264,9.83724487 26.2389809,10.3220051 C26.0627044,10.6745579 25.7101516,11.2915255 25.7101516,11.2915255 C26.4152573,11.6440783 26.8118793,12.0847694 26.8118793,12.5695296 C26.8559484,14.5085704 25.886428,19.4002415 25.2694605,21.3392823 C24.8287694,22.6613555 24.3880783,23.8512215 24.2118019,24.0274979 C24.1236637,24.1597052 23.462627,24.3359817 22.4490375,24.5563272 C22.7575213,23.2342539 23.6829726,21.0748676 24.8287694,13.9797411 C25.0491149,12.6135987 25.4457369,11.2474563 24.4321474,10.8949035 C24.3880783,12.1729076 23.1541433,17.3289934 22.3168302,19.0917577 C22.1405538,19.0476886 20.7303423,18.5188593 20.6422041,18.4307211 C20.5540658,18.2985138 18.8794397,12.4373223 17.9980575,8.0304114 C17.1166754,7.94227319 15.1335655,7.67785853 14.957289,8.47110249 L16.4997078,8.47110249 C16.2352932,8.69144804 16.147155,8.77958625 15.9708785,8.9999318 C16.5437769,9.04400091 16.9403989,9.83724487 17.2488827,11.0271108 L15.2217037,11.0271108 C15.353911,11.0711799 15.5301874,11.2033872 15.6183257,11.6000092 L15.6183257,17.7696844 L19.5845455,17.7696844 L23.0219359,26.9360591 C21.3913789,27.7733721 19.7167528,28.3022015 18.7031633,28.3022015 C17.6895738,28.3022015 15.0894964,26.9360591 14.7369435,26.9360591 C14.3843906,26.9801282 11.8283823,28.3022015 10.7707237,28.3022015 C9.71306508,28.3022015 8.03843895,27.6852339 6.45195103,26.9360591 L9.84527241,17.8137536 L13.8114922,17.8137536 L13.8114922,11.2915255 C13.723354,11.2033872 13.723354,11.0711799 13.5470775,11.0711799 C13.1063865,11.0711799 11.7402441,10.9830417 11.5198985,11.511871 C11.2554839,10.8508344 10.7707237,9.48469199 11.1673457,8.82365536 C11.3436221,8.55924071 12.0487279,8.11854962 13.5911467,8.11854962 C13.9877686,6.35578527 16.2793623,6.53206171 19.6286146,6.84054547 C19.6286146,6.79647636 19.5404763,6.97275279 19.5845455,7.28123655 C20.201513,10.4101433 21.5235862,15.2136761 21.5235862,15.2136761 C22.0524155,12.9661516 22.7575213,10.4982815 22.3168302,9.39655378 C22.0964847,8.82365536 21.6998627,8.47110249 20.201513,6.53206171 C19.408269,5.47440309 18.6150251,4.46081359 18.6590942,4.06419161 C18.7031633,3.66756963 18.7031633,2.69804924 20.9506878,0.318317364 C26.4152573,1.42004508 30.2052007,3.13874033 30.5577535,3.75570785 C31.0425137,4.5048827 31.2628593,5.38626488 31.6154122,8.77958625 C31.7916886,10.1457286 32.1001724,13.8475338 31.967965,16.7560949 L31.967965,16.7560949 Z M5.70277618,25.2173638 C5.96719084,26.0546769 6.09939816,26.6275753 6.09939816,26.6275753 C5.48243064,26.4072298 2.48573124,25.1732947 1.56027996,24.2478434 C0.502621345,23.1461157 0.458552236,21.9562498 0.238206692,20.6782456 C0.194137584,20.2816237 -0.0702770693,17.7696844 0.0178611483,17.2408551 C0.0178611483,17.2408551 1.56027996,18.2985138 2.35352391,19.223965 C3.23490609,20.2375545 3.85187361,21.1630058 3.85187361,21.1630058 C3.7637354,20.7223147 3.71966629,20.3697619 3.67559718,20.1053472 C3.58745896,19.3121033 4.11628827,18.7392048 4.02815005,18.5629284 C4.02815005,18.5629284 3.98408094,18.386652 3.7637354,17.9018918 C3.32304431,16.9764405 1.16365798,15.4780908 0.590759563,14.5085704 C0.370414019,14.1119484 -0.202484396,13.1864971 0.150068475,8.64737893 C0.150068475,8.64737893 1.86876372,10.4101433 2.75014589,11.5559401 C3.2789752,12.305115 3.89594272,13.4509118 3.89594272,13.4509118 C3.71966629,11.8644239 4.33663381,11.0271108 4.2925647,11.0271108 C4.2925647,10.9389726 4.16035738,10.3660742 3.94001183,9.96945219 C3.10269876,8.60330982 1.20772709,7.81006586 0.943312433,6.13543973 C0.722966889,4.85743557 1.25179619,3.79977696 4.24849559,2.65398013 C4.82139401,4.68115914 4.46884114,6.44392349 4.42477203,8.07448051 C5.83498351,6.84054547 5.65870707,3.75570785 6.36381282,2.65398013 C6.58415836,2.25735815 6.89264212,1.81666706 7.99436984,1.37597598 C9.00795934,0.979353996 9.62492687,0.714939344 10.5944473,0.582732017 C10.5944473,0.714939344 10.065618,2.56584191 9.62492687,3.4912932 C9.09609756,4.59302092 8.39099182,5.03371201 8.34692271,5.12185022 C9.49271954,4.81336646 10.3741017,4.28453716 11.1232766,3.18280944 C11.3876912,2.83025657 11.696175,2.43363459 12.0046587,1.90480528 C12.3131425,1.42004508 12.6216263,0.84714667 13.2826629,0.582732017 C15.0894964,-0.122373724 16.8963298,0.00983360279 17.4251591,0.00983360279 C17.0726063,1.11156132 15.5742566,3.22687855 14.0318377,3.97605339 C13.1504556,4.37267537 11.5198985,4.72522824 10.4622399,5.03371201 C9.22830489,5.38626488 7.37740232,6.0032324 5.96719084,7.06089101 C4.99767044,7.81006586 4.51291025,8.86772447 4.64511757,10.3220051 C5.48243064,9.39655378 7.33333321,8.25075695 8.83168291,7.76599675 C8.43506093,9.13213912 8.52319915,10.2338668 8.03843895,11.4678019 C7.7740243,12.2610458 5.52649975,14.1560175 4.90953223,15.1255379 C4.42477203,15.8306437 4.20442648,16.9764405 4.38070292,18.0340991 C4.38070292,18.0340991 4.95360133,17.2849243 5.35022331,16.8442332 C6.31974371,15.8747128 8.12657717,14.6407777 8.12657717,14.6407777 C8.12657717,15.3018144 7.86216251,18.2103755 7.50960964,19.4443106 C7.24519499,20.4579001 5.39429242,22.3528718 4.86546312,22.8817011 C4.86546312,22.8817011 5.43836153,24.2919126 5.70277618,25.2173638 L5.70277618,25.2173638 Z" id="IRS-Eagle-Copy" fill="#1B1B1B"></path>
    </g>
</svg>