<?xml version="1.0" encoding="UTF-8"?>
<svg width="14px" height="14px" viewBox="0 0 18 18" version="1.1" xmlns="http://www.w3.org/2000/svg" xmlns:xlink="http://www.w3.org/1999/xlink">
    <!-- Generator: Sketch 50.2 (55047) - http://www.bohemiancoding.com/sketch -->
    <title>Arrow_Right_Orange</title>
    <desc>Created with Sketch.</desc>
    <defs>
        <path d="M10.6531637,4.61328125 L11.5450285,3.74609375 C11.9226649,3.37890625 12.533311,3.37890625 12.90693,3.74609375 L20.7167727,11.3359375 C21.0944091,11.703125 21.0944091,12.296875 20.7167727,12.6601562 L12.90693,20.2539063 C12.5292936,20.6210938 11.9186475,20.6210938 11.5450285,20.2539063 L10.6531637,19.3867188 C10.2715099,19.015625 10.2795447,18.4101563 10.6692333,18.046875 L15.5102109,13.5625 L3.96417811,13.5625 C3.42986274,13.5625 3,13.1445312 3,12.625 L3,11.375 C3,10.8554687 3.42986274,10.4375 3.96417811,10.4375 L15.5102109,10.4375 L10.6692333,5.953125 C10.2755273,5.58984375 10.2674925,4.984375 10.6531637,4.61328125 Z" id="path-1"></path>
    </defs>
    <g id="Designs" stroke="none" stroke-width="1" fill="none" fill-rule="evenodd">
        <g id="HD-Desktop-Welcome-Screen-–-Opt-1" transform="translate(-226.000000, -672.000000)">
            <g id="Mid-Section" transform="translate(121.000000, 606.000000)">
                <g id="Mid-Boxes" transform="translate(102.000000, 60.000000)">
                    <g id="Design-Language">
                        <g id="actions-/-arrow-/-right-solid" transform="translate(0.000000, 3.000000)">
                            <mask id="mask-2" fill="white">
                                <use xlink:href="#path-1"></use>
                            </mask>
                            <use id="arrow-right-solid" fill="#1b1b1b" fill-rule="nonzero" xlink:href="#path-1"></use>
                            <g id="color-/-design-accent" mask="url(#mask-2)" fill="#fdb81e" fill-rule="evenodd">
                                <rect id="color-/-black-primary" x="0" y="0" width="24" height="24"></rect>
                            </g>
                        </g>
                    </g>
                </g>
            </g>
        </g>
    </g>
</svg>
