<?xml version="1.0" encoding="UTF-8"?>
<svg width="102px" height="89px" viewBox="0 0 102 89" version="1.1" xmlns="http://www.w3.org/2000/svg" xmlns:xlink="http://www.w3.org/1999/xlink">
    <!-- Generator: Sketch 55.1 (78136) - https://sketchapp.com -->
    <title>DesignProduct</title>
    <desc>Created with Sketch.</desc>
    <defs>
        <path d="M93.75,18.75 L93.75,12.5 L97.65625,12.5 C98.9505859,12.5 100,11.4505859 100,10.15625 L100,2.34375 C100,1.04941406 98.9505859,0 97.65625,0 L89.84375,0 C88.5494141,0 87.5,1.04941406 87.5,2.34375 L87.5,6.25 L12.5,6.25 L12.5,2.34375 C12.5,1.04941406 11.4505859,0 10.15625,0 L2.34375,0 C1.04941406,0 0,1.04941406 0,2.34375 L0,10.15625 C0,11.4505859 1.04941406,12.5 2.34375,12.5 L6.25,12.5 L6.25,75 L2.34375,75 C1.04941406,75 0,76.0494141 0,77.34375 L0,85.15625 C0,86.4505859 1.04941406,87.5 2.34375,87.5 L10.15625,87.5 C11.4505859,87.5 12.5,86.4505859 12.5,85.15625 L12.5,81.25 L87.5,81.25 L87.5,85.15625 C87.5,86.4505859 88.5494141,87.5 89.84375,87.5 L97.65625,87.5 C98.9505859,87.5 100,86.4505859 100,85.15625 L100,77.34375 C100,76.0494141 98.9505859,75 97.65625,75 L93.75,75 L93.75,18.75 Z M18.75,47.65625 L18.75,21.09375 C18.75,19.7994141 19.7994141,18.75 21.09375,18.75 L53.90625,18.75 C55.2005859,18.75 56.25,19.7994141 56.25,21.09375 L56.25,47.65625 C56.25,48.9505859 55.2005859,50 53.90625,50 L21.09375,50 C19.7994141,50 18.75,48.9505859 18.75,47.65625 Z M81.25,66.40625 C81.25,67.7005859 80.2005859,68.75 78.90625,68.75 L46.09375,68.75 C44.7994141,68.75 43.75,67.7005859 43.75,66.40625 L43.75,56.25 L57.8125,56.25 C60.4013672,56.25 62.5,54.1513672 62.5,51.5625 L62.5,37.5 L78.90625,37.5 C80.2005859,37.5 81.25,38.5494141 81.25,39.84375 L81.25,66.40625 Z" id="path-1"></path>
    </defs>
    <g id="Designs" stroke="none" stroke-width="1" fill="none" fill-rule="evenodd">
        <g id="IRS---ODG---Homepage---Option-3" transform="translate(-360.000000, -1174.000000)">
            <g id="For-Developers-Copy" transform="translate(183.000000, 1106.000000)">
                <g id="Group-4" transform="translate(123.000000, 69.000000)">
                    <g id="z-misc-/-photo-editing-/-object-group-regular" transform="translate(55.000000, 0.000000)">
                        <mask id="mask-2" fill="white">
                            <use xlink:href="#path-1"></use>
                        </mask>
                        <use id="DesignProduct" stroke="#00599C" fill="#FFFFFF" fill-rule="nonzero" xlink:href="#path-1"></use>
                    </g>
                </g>
            </g>
        </g>
    </g>
</svg>