<?xml version="1.0" encoding="UTF-8"?>
<svg width="101px" height="85px" viewBox="0 0 101 85" version="1.1" xmlns="http://www.w3.org/2000/svg" xmlns:xlink="http://www.w3.org/1999/xlink">
    <!-- Generator: Sketch 50.2 (55047) - http://www.bohemiancoding.com/sketch -->
    <title>Developers_Icon</title>
    <desc>Created with Sketch.</desc>
    <defs></defs>
    <g id="Designs" stroke="none" stroke-width="1" fill="none" fill-rule="evenodd">
        <g id="HD-Desktop-Welcome-Screen-–-Opt-1" transform="translate(-979.000000, -1157.000000)" stroke="#FFFFFF" stroke-width="0.75">
            <g id="For-Developers" transform="translate(800.000000, 1089.000000)">
                <g id="Group-4" transform="translate(108.000000, 69.000000)">
                    <path d="M147.913673,65.5108069 C147.497449,65.837551 147.030079,66 146.509799,66 C145.989518,66 145.573294,65.7821706 145.261126,65.3465118 L138.553922,57.8369356 C138.137698,57.4012768 137.956041,56.9120837 138.008951,56.3675102 C138.060097,55.8229367 138.243518,55.3891239 138.553922,55.0605338 L152.747869,42 L138.553922,28.9376202 C138.243518,28.6127221 138.060097,28.1752173 138.008951,27.6306438 C137.956041,27.0879163 138.137698,26.5987232 138.553922,26.1630644 L145.261126,18.6516422 C145.67735,18.2178294 146.118266,18 146.5874,18 C147.056534,18 147.497449,18.162449 147.913673,18.4873471 L170.3739,40.5305746 C170.791888,40.9643874 171,41.4554265 171,42 C171,42.5445735 170.791888,43.0337666 170.3739,43.4694254 L147.913673,65.5108069 Z M114.714476,82.8561319 C115.225817,83.0723405 115.686889,83.0448563 116.094228,82.7736794 C116.5033,82.5043348 116.810104,82.0994017 117.01464,81.5588802 L137.865182,5.39481473 C138.067985,4.85429319 138.041985,4.36690767 137.787181,3.93632271 C137.530645,3.50390548 137.149306,3.17959256 136.637966,2.96338394 L127.286509,0.0463999123 C126.775169,-0.0617043953 126.31583,0.0189157663 125.905024,0.290092674 C125.497686,0.559437305 125.190882,0.964370389 124.986346,1.50489193 L104.137537,77.6689574 C103.931267,78.2094789 103.957268,78.6968644 104.213804,79.1292817 C104.468608,79.5616989 104.853413,79.8841795 105.364753,80.1003882 L114.714476,82.8561319 Z M97.7371563,65.3465118 C97.4249877,65.7821706 97.0105265,66 96.4902455,66 C95.9699644,66 95.5025933,65.837551 95.0863685,65.5108069 L72.6243372,43.4694254 C72.2098761,43.0337666 72,42.5445735 72,42 C72,41.4554265 72.2098761,40.9643874 72.6243372,40.5305746 L95.0863685,18.4873471 C95.5025933,18.162449 95.9699644,18 96.4902455,18 C97.0105265,18 97.4249877,18.2178294 97.7371563,18.6516422 L104.446136,26.1630644 C104.860597,26.5987232 105.044018,27.0879163 104.991108,27.6306438 C104.939962,28.1752173 104.758305,28.6127221 104.446136,28.9376202 L90.2504004,42 L104.446136,55.0605338 C104.758305,55.3891239 104.939962,55.8229367 104.991108,56.3675102 C105.044018,56.9120837 104.860597,57.4012768 104.446136,57.8369356 L97.7371563,65.3465118 Z" id="Developers_Icon"></path>
                </g>
            </g>
        </g>
    </g>
</svg>
