<?xml version="1.0" encoding="UTF-8"?>
<svg width="186px" height="126px" viewBox="0 0 186 126" version="1.1" xmlns="http://www.w3.org/2000/svg" xmlns:xlink="http://www.w3.org/1999/xlink">
    <!-- Generator: Sketch 50.2 (55047) - http://www.bohemiancoding.com/sketch -->
    <title>Digital_Products</title>
    <desc>Created with Sketch.</desc>
    <defs></defs>
    <g id="Designs" stroke="none" stroke-width="1" fill="none" fill-rule="evenodd">
        <g id="HD-Desktop-Welcome-Screen-–-Opt-1" transform="translate(-327.000000, -380.000000)">
            <g id="Getting-Started" transform="translate(327.000000, 381.000000)">
                <g id="Digital_Products">
                    <path d="M73,64.2857143 C74.1608163,64.2857143 75.164898,63.8620408 76.0122449,63.0122449 C76.8620408,62.164898 77.2857143,61.1608163 77.2857143,60 C77.2857143,58.8391837 76.8620408,57.835102 76.0122449,56.9877551 C75.164898,56.1379592 74.1608163,55.7142857 73,55.7142857 C71.8391837,55.7142857 70.835102,56.1379592 69.9877551,56.9877551 C69.1379592,57.835102 68.7142857,58.8391837 68.7142857,60 C68.7142857,61.1608163 69.1379592,62.164898 69.9877551,63.0122449 C70.835102,63.8620408 71.8391837,64.2857143 73,64.2857143 Z M96.5714286,0 C98.3567347,0 99.875102,0.624489796 101.124082,1.87591837 C102.37551,3.12489796 103,4.64326531 103,6.42857143 L103,62.1428571 C103,63.9281633 102.37551,65.4465306 101.124082,66.6955102 C99.875102,67.9469388 98.3567347,68.5714286 96.5714286,68.5714286 L49.4285714,68.5714286 C47.6432653,68.5714286 46.124898,67.9469388 44.8759184,66.6955102 C43.6244898,65.4465306 43,63.9281633 43,62.1428571 L43,6.42857143 C43,4.64326531 43.6244898,3.12489796 44.8759184,1.87591837 C46.124898,0.624489796 47.6432653,0 49.4285714,0 L96.5714286,0 Z" id="Stroke-1" stroke="#B5BA05" fill-opacity="0.1" fill="#B5BA05"></path>
                    <rect id="Rectangle-7" fill="#E0F4FF" x="93" y="43" width="81" height="52"></rect>
                    <path d="M92.5,94.9375 L173.875,94.9375 L173.875,42.625 L92.5,42.625 L92.5,94.9375 Z M176.78125,31 C179.202571,31 181.261857,31.8469643 182.955786,33.5442143 C184.653036,35.2381429 185.5,37.2974286 185.5,39.71875 L185.5,97.84375 C185.5,100.265071 184.653036,102.324357 182.955786,104.018286 C181.261857,105.715536 179.202571,106.5625 176.78125,106.5625 L141.90625,106.5625 L144.8125,115.28125 L157.888964,115.28125 C159.101286,115.28125 160.130929,115.703071 160.977893,116.553357 C161.824857,117.400321 162.25,118.429964 162.25,119.642286 C162.25,120.851286 161.824857,121.880929 160.977893,122.727893 C160.130929,123.578179 159.101286,124 157.888964,124 L108.486036,124 C107.273714,124 106.244071,123.578179 105.397107,122.727893 C104.550143,121.880929 104.125,120.851286 104.125,119.642286 C104.125,118.429964 104.550143,117.400321 105.397107,116.553357 C106.244071,115.703071 107.273714,115.28125 108.486036,115.28125 L121.5625,115.28125 L124.46875,106.5625 L89.59375,106.5625 C87.1724286,106.5625 85.1131429,105.715536 83.4192143,104.018286 C81.7219643,102.324357 80.875,100.265071 80.875,97.84375 L80.875,39.71875 C80.875,37.2974286 81.7219643,35.2381429 83.4192143,33.5442143 C85.1131429,31.8469643 87.1724286,31 89.59375,31 L176.78125,31 Z" id="Stroke-1" stroke="#12636B" fill="#FFFFFF"></path>
                    <path d="M23.9375,103.1875 C25.1868286,103.1875 26.2674714,102.731521 27.1794286,101.816929 C28.0940214,100.904971 28.55,99.8243286 28.55,98.575 C28.55,97.3256714 28.0940214,96.2450286 27.1794286,95.3330714 C26.2674714,94.4184786 25.1868286,93.9625 23.9375,93.9625 C22.6881714,93.9625 21.6075286,94.4184786 20.6955714,95.3330714 C19.7809786,96.2450286 19.325,97.3256714 19.325,98.575 C19.325,99.8243286 19.7809786,100.904971 20.6955714,101.816929 C21.6075286,102.731521 22.6881714,103.1875 23.9375,103.1875 Z M40.08125,87.6209714 L40.08125,42.6477786 C40.08125,42.1680786 39.9152,41.7595429 39.5778286,41.4221714 C39.2404571,41.0874357 38.8319214,40.91875 38.3522214,40.91875 L9.52277857,40.91875 C9.04307857,40.91875 8.63454286,41.0874357 8.29717143,41.4221714 C7.9598,41.7595429 7.79375,42.1680786 7.79375,42.6477786 L7.79375,87.6209714 C7.79375,88.1006714 7.9598,88.5092071 8.29717143,88.8465786 C8.63454286,89.1813143 9.04307857,89.35 9.52277857,89.35 L38.3522214,89.35 C38.8319214,89.35 39.2404571,89.1813143 39.5778286,88.8465786 C39.9152,88.5092071 40.08125,88.1006714 40.08125,87.6209714 Z M40.08125,34 C42.0026857,34 43.6368286,34.6721071 44.9810429,36.0189571 C46.3278929,37.3631714 47,38.9973143 47,40.91875 L47,100.88125 C47,102.802686 46.3278929,104.436829 44.9810429,105.781043 C43.6368286,107.127893 42.0026857,107.8 40.08125,107.8 L7.79375,107.8 C5.87231429,107.8 4.23817143,107.127893 2.89395714,105.781043 C1.54710714,104.436829 0.875,102.802686 0.875,100.88125 L0.875,40.91875 C0.875,38.9973143 1.54710714,37.3631714 2.89395714,36.0189571 C4.23817143,34.6721071 5.87231429,34 7.79375,34 L40.08125,34 Z" id="Stroke-1" stroke="#004672" fill="#E0F4FF"></path>
                </g>
            </g>
        </g>
    </g>
</svg>