<?xml version="1.0" encoding="UTF-8"?>
<svg width="305px" height="205px" viewBox="0 0 305 205" version="1.1" xmlns="http://www.w3.org/2000/svg" xmlns:xlink="http://www.w3.org/1999/xlink">
    <!-- Generator: Sketch 55.1 (78136) - https://sketchapp.com -->
    <title>Digital_Products</title>
    <desc>Created with Sketch.</desc>
    <g id="Designs" stroke="none" stroke-width="1" fill="none" fill-rule="evenodd">
        <g id="IRS---ODG---Homepage---Option-3" transform="translate(-328.000000, -400.000000)">
            <g id="Getting-Started" transform="translate(329.000000, 401.000000)">
                <g id="Digital_Products">
                    <path d="M119,105 C120.896,105 122.536,104.308 123.92,102.92 C125.308,101.536 126,99.896 126,98 C126,96.104 125.308,94.464 123.92,93.08 C122.536,91.692 120.896,91 119,91 C117.104,91 115.464,91.692 114.08,93.08 C112.692,94.464 112,96.104 112,98 C112,99.896 112.692,101.536 114.08,102.92 C115.464,104.308 117.104,105 119,105 Z M157.5,0 C160.416,0 162.896,1.02 164.936,3.064 C166.98,5.104 168,7.584 168,10.5 L168,101.5 C168,104.416 166.98,106.896 164.936,108.936 C162.896,110.98 160.416,112 157.5,112 L80.5,112 C77.584,112 75.104,110.98 73.064,108.936 C71.02,106.896 70,104.416 70,101.5 L70,10.5 C70,7.584 71.02,5.104 73.064,3.064 C75.104,1.02 77.584,0 80.5,0 L157.5,0 Z" id="Stroke-1" stroke="#C7A97B" fill-opacity="0.1" fill="#C7A97B"></path>
                    <rect id="Rectangle-7" fill="#E4F3FB" x="151" y="70" width="133" height="85"></rect>
                    <path d="M150.111111,155.5 L283.888889,155.5 L283.888889,70 L150.111111,70 L150.111111,155.5 Z M288.666667,51 C292.647238,51 296.032635,52.3842857 298.817397,55.1582857 C301.607619,57.9268571 303,61.2925714 303,65.25 L303,160.25 C303,164.207429 301.607619,167.573143 298.817397,170.341714 C296.032635,173.115714 292.647238,174.5 288.666667,174.5 L231.333333,174.5 L236.111111,188.75 L257.608381,188.75 C259.601397,188.75 261.294095,189.439429 262.686476,190.829143 C264.078857,192.213429 264.777778,193.896286 264.777778,195.877714 C264.777778,197.853714 264.078857,199.536571 262.686476,200.920857 C261.294095,202.310571 259.601397,203 257.608381,203 L176.391619,203 C174.398603,203 172.705905,202.310571 171.313524,200.920857 C169.921143,199.536571 169.222222,197.853714 169.222222,195.877714 C169.222222,193.896286 169.921143,192.213429 171.313524,190.829143 C172.705905,189.439429 174.398603,188.75 176.391619,188.75 L197.888889,188.75 L202.666667,174.5 L145.333333,174.5 C141.352762,174.5 137.967365,173.115714 135.182603,170.341714 C132.392381,167.573143 131,164.207429 131,160.25 L131,65.25 C131,61.2925714 132.392381,57.9268571 135.182603,55.1582857 C137.967365,52.3842857 141.352762,51 145.333333,51 L288.666667,51 Z" id="Stroke-1" stroke="#002D62" fill="#FFFFFF"></path>
                    <path d="M38,169.4375 C40.0585143,169.4375 41.8390857,168.689893 43.3417143,167.190357 C44.8486857,165.695143 45.6,163.923357 45.6,161.875 C45.6,159.826643 44.8486857,158.054857 43.3417143,156.559643 C41.8390857,155.060107 40.0585143,154.3125 38,154.3125 C35.9414857,154.3125 34.1609143,155.060107 32.6582857,156.559643 C31.1513143,158.054857 30.4,159.826643 30.4,161.875 C30.4,163.923357 31.1513143,165.695143 32.6582857,167.190357 C34.1609143,168.689893 35.9414857,169.4375 38,169.4375 Z M64.6,143.915143 L64.6,70.1786071 C64.6,69.3921071 64.3264,68.7222857 63.7705143,68.1691429 C63.2146286,67.6203214 62.5414857,67.34375 61.7510857,67.34375 L14.2489143,67.34375 C13.4585143,67.34375 12.7853714,67.6203214 12.2294857,68.1691429 C11.6736,68.7222857 11.4,69.3921071 11.4,70.1786071 L11.4,143.915143 C11.4,144.701643 11.6736,145.371464 12.2294857,145.924607 C12.7853714,146.473429 13.4585143,146.75 14.2489143,146.75 L61.7510857,146.75 C62.5414857,146.75 63.2146286,146.473429 63.7705143,145.924607 C64.3264,145.371464 64.6,144.701643 64.6,143.915143 Z M64.6,56 C67.7659429,56 70.4585143,57.1019643 72.6733714,59.3102143 C74.8925714,61.5141429 76,64.1934286 76,67.34375 L76,165.65625 C76,168.806571 74.8925714,171.485857 72.6733714,173.689786 C70.4585143,175.898036 67.7659429,177 64.6,177 L11.4,177 C8.23405714,177 5.54148571,175.898036 3.32662857,173.689786 C1.10742857,171.485857 0,168.806571 0,165.65625 L0,67.34375 C0,64.1934286 1.10742857,61.5141429 3.32662857,59.3102143 C5.54148571,57.1019643 8.23405714,56 11.4,56 L64.6,56 Z" id="Stroke-1" stroke="#002D62" fill="#E0F4FF"></path>
                </g>
            </g>
        </g>
    </g>
</svg>
