<?xml version="1.0" encoding="utf-8"?>
<!-- Generator: Adobe Illustrator 22.1.0, SVG Export Plug-In . SVG Version: 6.00 Build 0)  -->
<svg version="1.1" xmlns="http://www.w3.org/2000/svg" xmlns:xlink="http://www.w3.org/1999/xlink" x="0px" y="0px"
	 viewBox="0 0 1440 220" style="enable-background:new 0 0 1440 220;" xml:space="preserve" preserveAspectRatio="none slice">
<style type="text/css">
	.st0{display:none;}
	.st1{fill:#FFFFFF;}
	.st2{fill:#EB2629;}
	.st3{fill:#BA122B;}
	.st4{fill:#009FDA;}
	.st5{fill:#00599C;}
	.st6{fill:#B5BA05;}
	.st7{fill:#61913D;}
	.st8{fill:#FA9E0D;}
	.st9{fill:#D95900;}
	.st10{fill:#00B394;}
	.st11{fill:#00828C;}
	.st12{fill:none;stroke:#B1B4B6;stroke-width:0.547;}
	.st13{fill:#DE7008;}
	.st14{fill:#995426;}
	.st15{fill:#FAD49E;}
	.st16{fill:#8C829E;}
	.st17{fill:#4D2612;}
	.st18{fill:#6B5C4F;}
	.st19{fill:#6B300D;}
	.st20{fill:#82613B;}
	.st21{fill:#E39963;}
	.st22{fill:#B08057;}
	.st23{fill:#BF5C00;}
	.st24{fill:#454F24;}
	.st25{fill:#7D8F29;}
	.st26{fill:#C7D6A3;}
	.st27{fill:#7DA18F;}
	.st28{fill:#598F94;}
	.st29{fill:#004236;}
	.st30{fill:#3B6E8F;}
	.st31{fill:#006B54;}
	.st32{fill:#9EB387;}
	.st33{fill:#738F80;}
	.st34{fill:#12636B;}
	.st35{fill:#337321;}
	.st36{fill:#007073;}
	.st37{fill:#B0D9E6;}
	.st38{fill:#82B8C9;}
	.st39{fill:#4799B5;}
	.st40{fill:#004D69;}
	.st41{fill:#0D5C91;}
	.st42{fill:#00789C;}
	.st43{fill:#57C7C2;}
	.st44{fill:#5CBACC;}
	.st45{fill:#007D8C;}
	.st46{fill:#9C1F2E;}
	.st47{fill:#B594A1;}
	.st48{fill:#80638F;}
	.st49{fill:#472638;}
	.st50{fill:#8A6B70;}
	.st51{fill:#5C5278;}
	.st52{fill:#752936;}
	.st53{fill:#821C6B;}
	.st54{fill:#8F2140;}
	.st55{fill:#FFFFFF;stroke:#000000;stroke-miterlimit:10;}
	.st56{opacity:0.7;fill:#009FDA;}
	.st57{clip-path:url(#SVGID_2_);}
	.st58{opacity:0.5;fill:#004673;}
	.st59{opacity:0.5;fill:#117FA1;}
	.st60{opacity:0.5;fill:#0072A9;}
	.st61{opacity:0.5;fill:#006797;}
	.st62{opacity:0.5;fill:#005D9D;}
	.st63{fill:#004F89;}
	.st64{opacity:0.5;fill:#004F89;}
	.st65{opacity:0.5;fill:#00437A;}
	.st66{opacity:0.5;fill:#004281;}
	.st67{opacity:0.5;fill:#00336B;}
</style>
<g id="Layer_1">
</g>
<g id="Layer_3" class="st0">
</g>
<g id="color_template">
</g>
<g id="Layer_4">
</g>
<g id="Layer_5">
</g>
<g id="Layer_6">
	<rect y="0" class="st58" width="1440" height="220"/>
	<polygon class="st44" points="322.8,0 0,0 0,130.7 86,192.9 	"/>
	<polygon class="st59" points="322.8,0 0,0 0,130.7 86,192.9 	"/>
	<polygon class="st4" points="0,130.7 0,220 52.7,220 86,192.9 	"/>
	<polygon class="st60" points="0,130.7 0,220 52.7,220 86,192.9 	"/>
	<polygon class="st56" points="687.7,32.3 431.3,220 432.8,220 688.4,32.8 	"/>
	<polygon class="st58" points="687.7,32.3 431.3,220 432.8,220 688.4,32.8 	"/>
	<polygon class="st44" points="687.7,32.3 642.1,0 322.8,0 86,192.9 123.5,220 431.3,220 	"/>
	<polygon class="st56" points="687.7,32.3 642.1,0 322.8,0 86,192.9 123.5,220 431.3,220 	"/>
	<polygon class="st61" points="687.7,32.3 642.1,0 322.8,0 86,192.9 123.5,220 431.3,220 	"/>
	<polygon class="st4" points="52.7,220 123.5,220 86,192.9 	"/>
	<polygon class="st56" points="52.7,220 123.5,220 86,192.9 	"/>
	<polygon class="st62" points="52.7,220 123.5,220 86,192.9 	"/>
	<polygon class="st63" points="432.8,220 952.7,220 688.4,32.8 	"/>
	<polygon class="st5" points="1239,0 955.6,220 1358.8,220 1440,154.5 1440,0 	"/>
	<polygon class="st64" points="1239,0 955.6,220 1358.8,220 1440,154.5 1440,0 	"/>
	<polygon class="st5" points="688.4,32.8 733.1,0 731.7,0 687.7,32.3 	"/>
	<polygon class="st58" points="688.4,32.8 733.1,0 731.7,0 687.7,32.3 	"/>
	<polygon class="st44" points="731.7,0 642.1,0 687.7,32.3 	"/>
	<polygon class="st5" points="731.7,0 642.1,0 687.7,32.3 	"/>
	<polygon class="st65" points="731.7,0 642.1,0 687.7,32.3 	"/>
	<polygon class="st56" points="1440,220 1440,154.5 1358.8,220 	"/>
	<polygon class="st5" points="1440,220 1440,154.5 1358.8,220 	"/>
	<polygon class="st66" points="1440,220 1440,154.5 1358.8,220 	"/>
	<polygon class="st5" points="952.7,220 955.6,220 1239,0 733.1,0 688.4,32.8 	"/>
	<polygon class="st5" points="952.7,220 955.6,220 1239,0 733.1,0 688.4,32.8 	"/>
	<polygon class="st67" points="952.7,220 955.6,220 1239,0 733.1,0 688.4,32.8 	"/>
</g>
</svg>
