<?xml version="1.0" encoding="UTF-8"?>
<svg width="57px" height="47px" viewBox="0 0 57 47" version="1.1" xmlns="http://www.w3.org/2000/svg" xmlns:xlink="http://www.w3.org/1999/xlink">
    <!-- Generator: Sketch 50.2 (55047) - http://www.bohemiancoding.com/sketch -->
    <title>Levels_Icon_Basic</title>
    <desc>Created with Sketch.</desc>
    <defs></defs>
    <g id="Designs" stroke="none" stroke-width="1" fill="none" fill-rule="evenodd">
        <g id="HD-Desktop-Welcome-Screen-–-Opt-1" transform="translate(-260.000000, -1162.000000)" stroke="#FFFFFF" stroke-width="0.75">
            <g id="For-Product-Stakeholders" transform="translate(185.000000, 1089.000000)">
                <g id="Group-2" transform="translate(76.000000, 70.000000)">
                    <path d="M51.7643482,40.1605966 L51.7643482,32.2763145 L42.0584983,36.3944857 L42.0584983,44.9817898 L51.7643482,40.1605966 Z M50.6526284,29.237392 L40.4409488,24.8929356 L30.2292693,29.237392 L40.4409488,33.5812991 L50.6526284,29.237392 Z M38.8233993,22.0808475 L38.8233993,15.4010399 L29.1175495,19.5192111 L29.1175495,26.2237343 L38.8233993,22.0808475 Z M38.6464971,11.9600766 L27.4994472,7.21467803 L16.3535029,11.9600766 L27.4994472,16.7060245 L38.6464971,11.9600766 Z M25.8824505,40.1605966 L25.8824505,32.2763145 L16.1766007,36.3944857 L16.1766007,44.9817898 L25.8824505,40.1605966 Z M24.7707307,29.237392 L14.5584983,24.8929356 L4.3473716,29.237392 L14.5584983,33.5812991 L24.7707307,29.237392 Z M55,40.1605966 C55,41.3667187 54.3167152,42.4959479 53.2049955,43.0232144 L41.8815961,48.648489 C41.4266258,48.8994898 40.9473314,49 40.4409488,49 C39.9351191,49 39.4547191,48.8994898 39.0003015,48.648489 L27.6769022,43.0232144 C27.6006131,42.9984988 27.5508594,42.9737831 27.4994472,42.9227042 C27.4491406,42.9737831 27.3988341,42.9984988 27.3230978,43.0232144 L15.9996985,48.648489 C15.5441753,48.8994898 15.0648809,49 14.5584983,49 C14.0526686,49 13.5728214,48.8994898 13.1184039,48.648489 L1.7944517,43.0232144 C0.683284752,42.4959479 0,41.3667187 0,40.1605966 L0,29.7141288 C0,28.4338598 0.783897879,27.2788166 1.97190672,26.7515501 L12.9409488,22.0808475 L12.9409488,12.0358712 C12.9409488,10.7556022 13.7248467,9.60000976 14.9128556,9.07274325 L26.2362549,4.25155007 C26.639813,4.07579456 27.0699065,4 27.4994472,4 C27.9300935,4 28.3596341,4.07579456 28.7637451,4.25155007 L40.0871444,9.07274325 C41.2746005,9.60000976 42.0584983,10.7556022 42.0584983,12.0358712 L42.0584983,22.0808475 L53.0280933,26.7515501 C54.2415318,27.2788166 55,28.4338598 55,29.7141288 L55,40.1605966 Z" id="Levels_Icon_Basic"></path>
                </g>
            </g>
        </g>
    </g>
</svg>