<?xml version="1.0" encoding="UTF-8"?>
<svg width="54px" height="50px" viewBox="0 0 54 50" version="1.1" xmlns="http://www.w3.org/2000/svg" xmlns:xlink="http://www.w3.org/1999/xlink">
    <!-- Generator: Sketch 50.2 (55047) - http://www.bohemiancoding.com/sketch -->
    <title>Levels_Icon_Full</title>
    <desc>Created with Sketch.</desc>
    <defs></defs>
    <g id="Designs" stroke="none" stroke-width="1" fill="none" fill-rule="evenodd">
        <g id="HD-Desktop-Welcome-Screen-–-Opt-1" transform="translate(-511.000000, -1159.000000)" fill="#FEFEFE">
            <g id="For-Product-Stakeholders" transform="translate(185.000000, 1089.000000)">
                <g id="Group-2" transform="translate(76.000000, 70.000000)">
                    <path d="M287.068687,26.7857143 C286.113193,26.7857143 282.624215,30.6636905 277,30.6636905 C271.375035,30.6636905 267.887557,26.7857143 266.930563,26.7857143 C258.690365,26.7857143 257.200874,36.468006 257.200874,42.7730655 C257.200874,47.2931548 260.209105,50 264.709827,50 L289.290173,50 C293.790895,50 296.799876,47.2931548 296.799876,42.7730655 C296.799876,36.468006 295.309635,26.7857143 287.068687,26.7857143 M253.487648,14.2857143 C249.91617,14.2857143 250.00017,21.875 250.00017,24.1346726 C250.00017,27.2328869 252.644653,28.5714286 255.457135,28.5714286 L259.224362,28.5714286 C261.10985,26.3392857 263.752833,25.0840774 266.678565,25 C265.215324,22.9077381 264.399329,20.3965774 264.399329,17.8571429 C264.399329,17.2433036 264.456329,16.6294643 264.540328,16.015625 C263.331336,16.4337798 262.093094,16.6577381 260.800102,16.6577381 C257.003626,16.6577381 254.078644,14.2857143 253.487648,14.2857143 M300.513102,14.2857143 C299.922106,14.2857143 296.996374,16.6577381 293.199898,16.6577381 C291.906156,16.6577381 290.668664,16.4337798 289.459672,16.015625 C289.543671,16.6294643 289.599921,17.2433036 289.599921,17.8571429 C289.599921,20.3965774 288.784676,22.9077381 287.322185,25 C290.246417,25.0840774 292.89015,26.3392857 294.774888,28.5714286 L298.543615,28.5714286 C301.356097,28.5714286 303.99983,27.2328869 303.99983,24.1346726 C303.99983,21.875 304.08383,14.2857143 300.513102,14.2857143 M277,7.14285714 C271.037537,7.14285714 266.200068,11.9419643 266.200068,17.8571429 C266.200068,23.7723214 271.037537,28.5714286 277,28.5714286 C282.961713,28.5714286 287.799932,23.7723214 287.799932,17.8571429 C287.799932,11.9419643 282.961713,7.14285714 277,7.14285714 M260.800102,0 C256.834877,0 253.600897,3.20907738 253.600897,7.14285714 C253.600897,11.077381 256.834877,14.2857143 260.800102,14.2857143 C264.765327,14.2857143 268.000056,11.077381 268.000056,7.14285714 C268.000056,3.20907738 264.765327,0 260.800102,0 M293.199898,0 C289.234673,0 285.999943,3.20907738 285.999943,7.14285714 C285.999943,11.077381 289.234673,14.2857143 293.199898,14.2857143 C297.165123,14.2857143 300.399103,11.077381 300.399103,7.14285714 C300.399103,3.20907738 297.165123,0 293.199898,0 M287.110686,27.5297619 C290.409166,27.5446429 292.8399,29.2872024 294.336141,32.7113095 C295.752882,35.9501488 296.04988,39.9709821 296.04988,42.7730655 C296.04988,46.7723214 293.459397,49.2559524 289.290173,49.2559524 L264.709827,49.2559524 C260.540603,49.2559524 257.95087,46.7723214 257.95087,42.7730655 C257.95087,39.9709821 258.247118,35.9501488 259.663859,32.7113095 C261.160099,29.2872024 263.590834,27.5446429 266.889313,27.5297619 C267.074562,27.5922619 267.579309,27.9293155 267.987307,28.2016369 C269.782795,29.4010417 272.788026,31.4077381 277,31.4077381 C281.211224,31.4077381 284.217205,29.4010417 286.012693,28.2016369 C286.421441,27.9293155 286.925438,27.5922619 287.110686,27.5297619 M300.573852,15.03125 C301.626095,15.0729167 302.385841,16.1964286 302.832838,18.3712798 C303.252835,20.4181548 303.250585,22.8251488 303.249835,23.9813988 L303.249835,24.1346726 C303.249835,26.8578869 300.81835,27.827381 298.543615,27.827381 L295.117636,27.827381 C293.402397,25.921131 291.134411,24.719494 288.607677,24.3630952 C289.73792,22.3705357 290.349916,20.1019345 290.349916,17.8571429 C290.349916,17.5952381 290.340166,17.328869 290.321416,17.0483631 C291.27316,17.2857143 292.223404,17.4017857 293.199898,17.4017857 C296.11288,17.4017857 298.537615,16.1011905 299.840357,15.4025298 C300.108855,15.2589286 300.435853,15.0825893 300.573852,15.03125 M253.426898,15.03125 C253.564147,15.0825893 253.891895,15.2589286 254.159643,15.4025298 C255.462385,16.1011905 257.88787,17.4017857 260.800102,17.4017857 C261.775846,17.4017857 262.72609,17.2857143 263.678584,17.0483631 C263.659084,17.328869 263.649334,17.5952381 263.649334,17.8571429 C263.649334,20.1026786 264.26283,22.3705357 265.392323,24.3630952 C262.865589,24.719494 260.596853,25.921131 258.881614,27.827381 L255.457135,27.827381 C253.18165,27.827381 250.750165,26.8578869 250.750165,24.1346726 L250.750165,23.9813988 C250.749415,22.8251488 250.747165,20.4181548 251.167912,18.3712798 C251.614909,16.1964286 252.373905,15.0729167 253.426898,15.03125 M277,7.88690476 C282.541715,7.88690476 287.049937,12.359375 287.049937,17.8571429 C287.049937,23.3549107 282.541715,27.827381 277,27.827381 C271.459035,27.827381 266.950063,23.3549107 266.950063,17.8571429 C266.950063,12.359375 271.459035,7.88690476 277,7.88690476 M260.800102,0.744047619 C264.356579,0.744047619 267.250061,3.61458333 267.250061,7.14285714 C267.250061,10.671131 264.356579,13.5416667 260.800102,13.5416667 C257.243624,13.5416667 254.350892,10.671131 254.350892,7.14285714 C254.350892,3.61458333 257.243624,0.744047619 260.800102,0.744047619 M293.199898,0.744047619 C296.756376,0.744047619 299.649108,3.61458333 299.649108,7.14285714 C299.649108,10.671131 296.756376,13.5416667 293.199898,13.5416667 C289.643421,13.5416667 286.749939,10.671131 286.749939,7.14285714 C286.749939,3.61458333 289.643421,0.744047619 293.199898,0.744047619" id="Levels_Icon_Full"></path>
                </g>
            </g>
        </g>
    </g>
</svg>