<?xml version="1.0" encoding="UTF-8"?>
<svg width="47px" height="47px" viewBox="0 0 47 47" version="1.1" xmlns="http://www.w3.org/2000/svg" xmlns:xlink="http://www.w3.org/1999/xlink">
    <!-- Generator: Sketch 50.2 (55047) - http://www.bohemiancoding.com/sketch -->
    <title>Levels_Icon_Intermediate</title>
    <desc>Created with Sketch.</desc>
    <defs></defs>
    <g id="Designs" stroke="none" stroke-width="1" fill="none" fill-rule="evenodd">
        <g id="HD-Desktop-Welcome-Screen-–-Opt-1" transform="translate(-391.000000, -1163.000000)" stroke="#FFFFFF" stroke-width="0.75">
            <g id="For-Product-Stakeholders" transform="translate(185.000000, 1089.000000)">
                <g id="Group-2" transform="translate(76.000000, 70.000000)">
                    <path d="M175.353852,31.4492444 C175.910105,31.9761129 176.115213,32.7688778 175.938,33.5009132 C175.732892,34.2329486 175.148744,34.8189053 174.416919,34.9945281 L168.908537,36.4011523 L170.462436,41.852026 C170.667544,42.5840615 170.462436,43.375185 169.904542,43.9020535 C169.376183,44.4601074 168.586928,44.6652743 167.855102,44.4601074 L162.404151,42.9057631 L160.999571,48.415725 C160.823998,49.1477604 160.23821,49.733717 159.506384,49.9388839 C159.329171,49.9684279 159.124063,49.997972 158.94849,49.997972 C158.392237,49.997972 157.835984,49.763261 157.455304,49.3529273 L153.50082,45.3086777 L149.544696,49.3529273 C149.017979,49.9093399 148.227082,50.1145067 147.493616,49.9388839 C146.733896,49.733717 146.177643,49.1477604 146.000429,48.415725 L144.595849,42.9057631 L139.146539,44.4601074 C138.413072,44.6652743 137.623817,44.4601074 137.097099,43.9020535 C136.539205,43.375185 136.334097,42.5840615 136.539205,41.852026 L138.091463,36.4011523 L132.584722,34.9945281 C131.851256,34.8189053 131.267108,34.2329486 131.062,33.5009132 C130.884787,32.7688778 131.089895,31.9761129 131.646148,31.4492444 L135.689238,27.4936268 L131.646148,23.5380093 C131.089895,23.0094994 130.884787,22.2183759 131.062,21.4863405 C131.267108,20.7526637 131.851256,20.1683484 132.584722,19.9927256 L138.091463,18.5861014 L136.539205,13.1352277 C136.334097,12.4031922 136.539205,11.6120687 137.097099,11.0852002 C137.623817,10.5271463 138.413072,10.3219794 139.146539,10.5271463 L144.595849,12.0798492 L146.000429,6.57152874 C146.177643,5.83785196 146.76179,5.25353668 147.493616,5.07791383 C148.227082,4.87274695 149.017979,5.07791383 149.544696,5.63268508 L153.50082,9.70647872 L157.455304,5.63268508 C157.982021,5.07791383 158.743382,4.87274695 159.506384,5.07791383 C160.23821,5.25353668 160.823998,5.83785196 160.999571,6.57152874 L162.404151,12.0798492 L167.855102,10.5271463 C168.586928,10.3219794 169.376183,10.5271463 169.904542,11.0852002 C170.462436,11.6120687 170.667544,12.4031922 170.462436,13.1352277 L168.908537,18.5861014 L174.416919,19.9927256 C175.148744,20.1683484 175.732892,20.7526637 175.938,21.4863405 C176.115213,22.2183759 175.910105,23.0094994 175.353852,23.5380093 L171.310762,27.4936268 L175.353852,31.4492444 Z" id="Levels_Icon_Intermediate"></path>
                </g>
            </g>
        </g>
    </g>
</svg>